<?xml version="1.0" ?>
<!DOCTYPE svg  PUBLIC '-//W3C//DTD SVG 1.1//EN' 'http://www.w3.org/Graphics/SVG/1.1/DTD/svg11.dtd' [
    <!ENTITY stroke_color "&stroke_color;">
    <!ENTITY fill_color "&fill_color;">
]>
<svg version="1.1" id="Layer_1" xmlns="http://www.w3.org/2000/svg" xmlns:xlink="http://www.w3.org/1999/xlink" x="0px" y="0px"
	 width="546px" height="573.606px" viewBox="0 0 546 573.606" enable-background="new 0 0 546 573.606" xml:space="preserve">
<g>
	<path fill="&fill_color;" stroke="&stroke_color;" stroke-width="12" stroke-miterlimit="10" d="M162.673,390.606
		c0,0-17.973,7.946-21.904,12.946c-3.348,4.256-6.312,20.718-6.312,20.718s21.076,4.034,27.349,1.297
		c6.545-2.856,18.407-21.847,18.407-21.847"/>
	<path fill="&fill_color;" stroke="&stroke_color;" stroke-width="12" stroke-miterlimit="10" d="M179.11,364.103l-46.154-4.667
		c0,0,7.986,29.5,16.016,35.333c7.244,5.264,35.637,4.613,35.637,4.613"/>
	<path fill="&fill_color;" stroke="&stroke_color;" stroke-width="12" stroke-miterlimit="10" d="M439.69,247.462
		c0,89.88-72.861,160.742-162.742,160.742c-89.879,0-162.742-70.862-162.742-160.742c0-89.88,72.863-162.742,162.742-162.742
		C366.829,84.72,439.69,157.582,439.69,247.462"/>
	<path fill="&fill_color;" stroke="&stroke_color;" stroke-width="12" stroke-miterlimit="10" d="M342.702,98.562
		c0,0,82.952-19.483,96.988-43.84c4.146-7.191,10.414-23.307,22.499-23.999c30.732-1.76,22.42,43.104,19.499,73.748
		c-3.535,37.09-41.998,142.991-41.998,142.991"/>
	<path fill="&fill_color;" stroke="&stroke_color;" stroke-width="12" stroke-miterlimit="10" d="M207.378,100.308
		c0,0-55.562-27.322-74.672-41.586c-13.419-10.016-54.497-47.534-64.497-41.498c-18.085,10.916-5.899,63.653-2.5,83.995
		c5.261,31.465,48.713,137.816,48.713,137.816"/>
	<path fill="&fill_color;" stroke="&stroke_color;" stroke-width="12" stroke-miterlimit="10" d="M175.607,375.575
		c0,0-10.81,20.041-4.749,25.629c32.973,30.404,106.13,61.806,133.516,89.996c13.271,13.66,38.327,65.836,38.327,65.836
		s29.63-67.157,35.906-90.731c4.584-17.217,13.923-53.111,10.197-70.535c-1.222-5.709-11.731-20.194-11.731-20.194"/>
	<path fill="&fill_color;" stroke="&stroke_color;" stroke-width="12" stroke-miterlimit="10" d="M425.812,313.296
		c0,29.201-69.872,96.907-148.863,96.907c-78.343,0-147.009-64.17-147.009-93.37c0-15.266,42.492-28.769,74.666-46.731
		c29.369-16.395,47.365-38,72.343-38c20.163,0,42.75,24.855,72.325,39.333C384.714,288.786,425.812,297.379,425.812,313.296"/>
	<path fill="&fill_color;" stroke="&stroke_color;" stroke-width="12" stroke-miterlimit="10" d="M315.274,313.769c0,15.464-37.333,31-37.333,31
		s-37.335-15.536-37.335-31c0-15.464,16.716-25,37.335-25C298.559,288.769,315.274,298.305,315.274,313.769"/>
	<path fill="&fill_color;" stroke="&stroke_color;" stroke-width="12" stroke-miterlimit="10" d="M378.607,233.462
		c0,9.205-7.462,16.667-16.667,16.667c-9.204,0-16.666-7.462-16.666-16.667c0-9.205,7.462-16.667,16.666-16.667
		C371.146,216.795,378.607,224.257,378.607,233.462"/>
	<path fill="&fill_color;" stroke="&stroke_color;" stroke-width="12" stroke-miterlimit="10" d="M208.94,233.462
		c0,9.205-7.462,16.667-16.666,16.667c-9.205,0-16.666-7.462-16.666-16.667c0-9.205,7.461-16.667,16.666-16.667
		C201.479,216.795,208.94,224.257,208.94,233.462"/>
	<path fill="&fill_color;" stroke="&stroke_color;" stroke-width="12" stroke-miterlimit="10" d="M121.866,103.004
		c-13.418-10.016-57.795-69.403-55.525-49.379c1.638,14.435,4.604,28.641,6.027,37.162c5.26,31.466,43.713,137.817,43.713,137.817
		s8.577-35.723,12.52-46.933c11.016-31.334,33.556-53.036,33.556-53.036S140.976,117.268,121.866,103.004"/>
	<path fill="&fill_color;" stroke="&stroke_color;" stroke-width="12" stroke-miterlimit="10" d="M432.185,106.359
		c13.418-10.016,45.854-50.257,45.748-35.268c-0.104,14.527-4.498,32.688-5.923,41.209c-5.26,31.466-34.689,120.659-34.689,120.659
		s-7.928-36.723-11.87-47.933c-11.016-31.334-33.556-53.036-33.556-53.036S413.075,120.624,432.185,106.359"/>
	<path fill="&fill_color;" stroke="&stroke_color;" stroke-width="12" stroke-miterlimit="10" d="M184.607,366.103
		c0,0,16.603,8.254,41.996,8.454c20.384,0.158,49.447-7.524,53.337-7.787c0,0,28.527,9.796,45.993,9.658
		c20.892-0.166,40.007-12.325,40.007-12.325s-55.666,31.683-85,31.667C253.593,395.754,184.607,366.103,184.607,366.103"/>
	<path fill="&fill_color;" stroke="&stroke_color;" stroke-width="12" stroke-miterlimit="10" d="M266.047,393.859
		c0,0,27.894-13.924,45.602-11.812c15.54,1.854,29.417,18.547,30.667,30.667c1.104,10.703,0.521,32.767-11,37.333
		c-10.187,4.039-31.006-6.125-34-16.667c-2.21-7.776,4.299-17.022-3.667-28.333C288.648,397.948,266.047,393.859,266.047,393.859"/>
</g>
</svg>
