<?xml version="1.0" ?>
<!DOCTYPE svg  PUBLIC '-//W3C//DTD SVG 1.1//EN' 'http://www.w3.org/Graphics/SVG/1.1/DTD/svg11.dtd' [
    <!ENTITY stroke_color "&stroke_color;">
    <!ENTITY fill_color "&fill_color;">
]>
<svg version="1.1" id="Layer_1" xmlns="http://www.w3.org/2000/svg" xmlns:xlink="http://www.w3.org/1999/xlink" x="0px" y="0px"
	 width="546px" height="573.606px" viewBox="0 0 546 573.606" enable-background="new 0 0 546 573.606" xml:space="preserve">
<g>
	<defs>
		<rect id="SVGID_1_" x="683" width="426.403" height="921.606"/>
	</defs>
	<clipPath id="SVGID_2_">
		<use xlink:href="#SVGID_1_"  overflow="visible"/>
	</clipPath>
	<path clip-path="url(#SVGID_2_)" fill="&fill_color;" d="M787.137,374.035c0,0-17.973,7.946-21.905,12.946
		c-3.347,4.257-6.312,20.718-6.312,20.718s21.075,4.035,27.348,1.297c6.545-2.857,18.408-21.846,18.408-21.846"/>
	<path clip-path="url(#SVGID_2_)" fill="&fill_color;" d="M803.575,347.531l-46.154-4.667c0,0,7.985,29.499,16.015,35.334
		c7.244,5.263,35.636,4.613,35.636,4.613"/>
	<polyline clip-path="url(#SVGID_2_)" fill="&fill_color;" points="1029.019,640.099 1006.1,818.589 1040.019,832.089 1049.118,863.587 
		961.4,863.587 956.907,805.09 956.9,640.099 	"/>
	<polyline clip-path="url(#SVGID_2_)" fill="&fill_color;" points="785.807,640.079 808.725,818.568 774.807,832.068 765.707,863.566 
		856.425,863.566 857.918,805.069 860.925,640.079 	"/>
	<path clip-path="url(#SVGID_2_)" fill="&fill_color;" d="M1039.276,698.118H775.17c0,0-24.998-122.253-20.765-171.741
		c3.202-37.44,54.666-171.742,54.666-171.742h181.333c0,0,55.915,134.107,59.872,171.742
		C1055.465,575.724,1039.276,698.118,1039.276,698.118"/>
	<path clip-path="url(#SVGID_2_)" fill="&fill_color;" d="M1064.154,230.891c0,89.88-72.861,160.742-162.742,160.742
		c-89.879,0-162.742-70.862-162.742-160.742c0-89.88,72.862-162.742,162.742-162.742
		C991.293,68.148,1064.154,141.01,1064.154,230.891"/>
	<path clip-path="url(#SVGID_2_)" fill="&fill_color;" d="M967.166,81.991c0,0,82.952-19.483,96.988-43.84
		c4.146-7.191,10.414-23.307,22.499-23.999c30.732-1.76,22.42,43.104,19.499,73.748c-3.535,37.09-41.998,142.991-41.998,142.991"/>
	<polyline clip-path="url(#SVGID_2_)" fill="&fill_color;" points="847.184,385.18 851.184,494.127 803.071,506.626 835.339,581.847 
		855.868,698.118 959.9,698.118 971.984,585.582 1003.009,512.126 954.9,494.127 964.118,382.811 	"/>
	<path clip-path="url(#SVGID_2_)" fill="&fill_color;" d="M831.842,83.737c0,0-55.563-27.322-74.672-41.586
		c-13.419-10.016-54.497-47.534-64.497-41.498c-18.085,10.916-5.9,63.653-2.5,83.995c5.26,31.465,48.713,137.816,48.713,137.816"/>
	<path clip-path="url(#SVGID_2_)" fill="&fill_color;" d="M800.071,359.003c0,0-10.809,20.041-4.749,25.629
		c32.973,30.404,106.13,61.805,133.516,89.996c13.271,13.66,38.327,65.836,38.327,65.836s29.63-67.157,35.906-90.731
		c4.584-17.217,13.923-53.112,10.197-70.536c-1.222-5.709-11.731-20.194-11.731-20.194"/>
	<path clip-path="url(#SVGID_2_)" fill="&fill_color;" d="M1050.276,296.725c0,29.201-69.872,96.907-148.863,96.907
		c-78.342,0-147.008-64.17-147.008-93.37c0-15.266,42.492-28.769,74.666-46.731c29.368-16.395,47.365-38,72.342-38
		c20.163,0,42.75,24.855,72.325,39.333C1009.178,272.214,1050.276,280.808,1050.276,296.725"/>
	<path clip-path="url(#SVGID_2_)" fill="&fill_color;" d="M939.738,297.198c0,15.464-37.333,31-37.333,31s-37.334-15.536-37.334-31
		c0-15.464,16.715-25,37.334-25C923.022,272.198,939.738,281.734,939.738,297.198"/>
	<path clip-path="url(#SVGID_2_)" fill="&fill_color;" d="M1003.071,229.891c0,9.205-7.462,16.667-16.667,16.667
		c-9.204,0-16.666-7.462-16.666-16.667c0-9.205,7.462-16.667,16.666-16.667C995.609,213.224,1003.071,220.686,1003.071,229.891"/>
	<path clip-path="url(#SVGID_2_)" fill="&fill_color;" d="M833.405,229.891c0,9.205-7.462,16.667-16.667,16.667
		c-9.204,0-16.666-7.462-16.666-16.667c0-9.205,7.462-16.667,16.666-16.667C825.942,213.224,833.405,220.686,833.405,229.891"/>
	<path clip-path="url(#SVGID_2_)" fill="&fill_color;" d="M1013.691,200.7c0,0-23.177-5.275-38.322-4.504
		c-13.212,0.673-14.888-20.481-9.069-28.768c5.817-8.287,19.311-3.843,30.138,3.758S1013.691,200.7,1013.691,200.7"/>
	<path clip-path="url(#SVGID_2_)" fill="&fill_color;" d="M789.451,200.7c0,0,23.177-5.275,38.323-4.504
		c13.211,0.673,14.887-20.481,9.069-28.768c-5.817-8.287-19.311-3.843-30.138,3.758C795.878,178.787,789.451,200.7,789.451,200.7"/>
	<path clip-path="url(#SVGID_2_)" fill="&fill_color;" d="M746.33,86.433c-13.418-10.016-57.795-69.403-55.525-49.379
		c1.637,14.435,4.603,28.641,6.027,37.162c5.26,31.466,43.713,137.817,43.713,137.817s8.577-35.723,12.519-46.933
		c11.016-31.334,33.556-53.036,33.556-53.036S765.439,100.697,746.33,86.433"/>
	<path clip-path="url(#SVGID_2_)" fill="&fill_color;" d="M1056.648,89.788c13.418-10.016,45.854-50.257,45.748-35.268
		c-0.104,14.527-4.498,32.688-5.923,41.209c-5.26,31.466-34.689,120.659-34.689,120.659s-7.928-36.723-11.87-47.933
		c-11.016-31.334-33.556-53.036-33.556-53.036S1037.539,104.052,1056.648,89.788"/>
	<path clip-path="url(#SVGID_2_)" fill="&fill_color;" d="M809.071,349.531c0,0,16.602,8.254,41.996,8.453
		c20.384,0.159,49.447-7.524,53.337-7.786c0,0,28.527,9.796,45.993,9.657c20.892-0.166,40.007-12.324,40.007-12.324
		s-55.666,31.683-85,31.667C878.056,379.183,809.071,349.531,809.071,349.531"/>
	<path clip-path="url(#SVGID_2_)" fill="&fill_color;" d="M890.511,377.287c0,0,27.894-13.923,45.602-11.812
		c15.54,1.853,29.417,18.547,30.667,30.667c1.104,10.703,0.521,32.766-11,37.333c-10.187,4.039-31.006-6.125-34-16.667
		c-2.21-7.777,4.299-17.022-3.667-28.333C913.112,381.376,890.511,377.287,890.511,377.287"/>
	<polyline clip-path="url(#SVGID_2_)" fill="&fill_color;" points="1039.276,695.118 1016.358,876.608 1050.276,890.108 
		1059.377,921.606 971.659,921.606 967.166,863.109 967.159,698.118 	"/>
	<polyline clip-path="url(#SVGID_2_)" fill="&fill_color;" points="776.066,695.097 798.984,876.587 765.066,890.087 755.966,921.585 
		846.684,921.585 848.177,863.088 851.184,698.097 	"/>
</g>
<g>
	<path fill="&fill_color;" stroke="&stroke_color;" stroke-width="24" stroke-miterlimit="10" d="M444.901,324.471
		c0,89.88-72.861,160.742-162.742,160.742c-89.879,0-162.742-70.862-162.742-160.742c0-89.88,72.863-162.742,162.742-162.742
		C372.04,161.729,444.901,234.59,444.901,324.471"/>
	<g>
        <path  fill="&fill_color;" stroke="&stroke_color;" stroke-width="24" stroke-miterlimit="10" d="M192.589,283.47c-11.046,0-20,8.955-20,20c0,11.045,8.954,20,20,20c11.046,0,20-8.955,20-20 C212.589,292.425,203.635,283.47,192.589,283.47L192.589,283.47z"/>
	</g>
	<g>
        <path fill="&fill_color;" stroke="&stroke_color;" stroke-width="24" stroke-miterlimit="10" d="M367.152,283.47c-11.046,0-20,8.955-20,20c0,11.045,8.954,20,20,20c11.046,0,20-8.955,20-20 C387.152,292.425,378.198,283.47,367.152,283.47L367.152,283.47z"/>
	</g>
	<path fill="&fill_color;" stroke="&stroke_color;" stroke-width="24" stroke-miterlimit="10" d="M347.913,175.571
		c0,0,82.952-19.483,96.988-43.84c4.146-7.191,10.414-23.307,22.499-23.999c30.732-1.76,22.42,43.104,19.499,73.748
		c-3.535,37.09-41.998,142.991-41.998,142.991"/>
	<path fill="&fill_color;" stroke="&stroke_color;" stroke-width="24" stroke-miterlimit="10" d="M212.589,177.317
		c0,0-55.562-27.322-74.672-41.586C124.498,125.715,83.42,88.197,73.42,94.233c-18.085,10.916-5.899,63.653-2.5,83.995
		c5.261,31.465,48.713,137.816,48.713,137.816"/>
	<path fill="&fill_color;" stroke="&stroke_color;" stroke-width="24" stroke-miterlimit="10" d="M431.023,390.305
		c0,29.201-69.872,96.907-148.863,96.907c-78.343,0-147.009-64.17-147.009-93.37c0-15.266,42.492-28.769,74.666-46.731
		c29.369-16.395,47.365-38,72.343-38c20.163,0,42.75,24.855,72.325,39.333C389.925,365.794,431.023,374.388,431.023,390.305"/>
	<path fill="&fill_color;" stroke="&stroke_color;" stroke-width="18" stroke-miterlimit="10" d="M320.485,387.778c0,15.464-37.333,31-37.333,31
		s-37.335-15.536-37.335-31c0-15.464,16.716-25,37.335-25C303.77,362.778,320.485,372.314,320.485,387.778"/>
	<path fill="&fill_color;" stroke="&stroke_color;" stroke-width="24" stroke-miterlimit="10" d="M127.077,180.013
		c-13.418-10.016-57.795-69.403-55.525-49.379c1.638,14.435,4.604,28.641,6.027,37.162c5.26,31.466,43.713,137.817,43.713,137.817
		s8.577-35.723,12.52-46.933c11.016-31.334,33.556-53.036,33.556-53.036S146.187,194.277,127.077,180.013"/>
	<path fill="&fill_color;" stroke="&stroke_color;" stroke-width="24" stroke-miterlimit="10" d="M437.396,183.368
		c13.418-10.016,45.854-50.257,45.748-35.268c-0.104,14.527-4.498,32.688-5.923,41.209c-5.26,31.466-34.689,120.659-34.689,120.659
		s-7.928-36.723-11.87-47.933c-11.016-31.334-33.556-53.036-33.556-53.036S418.286,197.632,437.396,183.368"/>
	<path fill="&fill_color;" stroke="&stroke_color;" stroke-width="30" stroke-miterlimit="10" d="M189.818,446.111
		c0,0,16.603,8.254,41.996,8.454c20.384,0.158,49.447-7.524,53.337-7.787c0,0,28.527,9.796,45.993,9.658
		c20.892-0.166,40.007-12.325,40.007-12.325s-55.666,31.683-85,31.667C258.804,475.763,189.818,446.111,189.818,446.111"/>
	<path fill="&fill_color;" stroke="&stroke_color;" stroke-width="24" stroke-miterlimit="10" d="M265.258,467.868
		c0,0,27.894-13.924,45.602-11.812c15.54,1.854,29.417,18.547,30.667,30.667c1.104,10.703,0.521,32.767-11,37.333
		c-10.187,4.039-31.006-6.125-34-16.667c-2.21-7.776,4.299-17.022-3.667-28.333C287.859,471.957,265.258,467.868,265.258,467.868"/>
	<path fill="&fill_color;" stroke="&stroke_color;" stroke-width="18" stroke-miterlimit="10" d="M283.087,413.106"/>
	<path fill="&fill_color;" stroke="&stroke_color;" stroke-width="16.4348" stroke-linecap="round" stroke-miterlimit="10" d="M280.611,283.47"
		/>
	
		<path fill="&fill_color;" stroke="&stroke_color;" stroke-width="16.4348" stroke-linecap="round" stroke-linejoin="round" stroke-miterlimit="10" d="
		M294,434.106"/>
</g>
<g>
	<defs>
		<rect id="SVGID_3_" x="1271" width="426.403" height="921.606"/>
	</defs>
	<clipPath id="SVGID_4_">
		<use xlink:href="#SVGID_3_"  overflow="visible"/>
	</clipPath>
	<path clip-path="url(#SVGID_4_)" fill="&fill_color;" d="M1375.137,374.035c0,0-17.973,7.946-21.904,12.946
		c-3.348,4.256-6.312,20.718-6.312,20.718s21.076,4.034,27.349,1.297c6.545-2.856,18.407-21.847,18.407-21.847"/>
	<path clip-path="url(#SVGID_4_)" fill="&fill_color;" d="M1391.574,347.531l-46.154-4.667c0,0,7.986,29.5,16.016,35.333
		c7.244,5.264,35.637,4.613,35.637,4.613"/>
	<polyline clip-path="url(#SVGID_4_)" fill="&fill_color;" points="1617.019,640.099 1594.1,818.589 1628.019,832.089 1637.118,863.587 
		1549.4,863.587 1544.907,805.09 1544.9,640.099 	"/>
	<polyline clip-path="url(#SVGID_4_)" fill="&fill_color;" points="1373.807,640.079 1396.725,818.568 1362.807,832.068 
		1353.707,863.566 1444.426,863.566 1445.918,805.069 1448.926,640.079 	"/>
	<path clip-path="url(#SVGID_4_)" fill="&fill_color;" d="M1627.276,698.118H1363.17c0,0-24.998-122.253-20.766-171.741
		c3.203-37.44,54.666-171.742,54.666-171.742h181.334c0,0,55.915,134.107,59.872,171.742
		C1643.465,575.724,1627.276,698.118,1627.276,698.118"/>
	<path clip-path="url(#SVGID_4_)" fill="&fill_color;" d="M1652.154,230.891c0,89.88-72.861,160.742-162.742,160.742
		c-89.879,0-162.742-70.862-162.742-160.742c0-89.88,72.863-162.742,162.742-162.742
		C1579.293,68.148,1652.154,141.01,1652.154,230.891"/>
	<path clip-path="url(#SVGID_4_)" fill="&fill_color;" d="M1555.166,81.991c0,0,82.952-19.483,96.988-43.84
		c4.146-7.191,10.414-23.307,22.499-23.999c30.732-1.76,22.42,43.104,19.499,73.748c-3.535,37.09-41.998,142.991-41.998,142.991"/>
	<polyline clip-path="url(#SVGID_4_)" fill="&fill_color;" points="1435.184,385.18 1439.184,494.127 1391.07,506.626 1423.339,581.847 
		1443.867,698.118 1547.9,698.118 1559.984,585.582 1591.009,512.126 1542.9,494.127 1552.118,382.811 	"/>
	<path clip-path="url(#SVGID_4_)" fill="&fill_color;" d="M1419.842,83.737c0,0-55.562-27.322-74.672-41.586
		c-13.419-10.016-54.497-47.534-64.497-41.498c-18.085,10.916-5.899,63.653-2.5,83.995c5.261,31.465,48.713,137.816,48.713,137.816"
		/>
	<path clip-path="url(#SVGID_4_)" fill="&fill_color;" d="M1388.071,359.003c0,0-10.81,20.041-4.749,25.629
		c32.973,30.404,106.13,61.806,133.516,89.996c13.271,13.66,38.327,65.836,38.327,65.836s29.63-67.157,35.906-90.731
		c4.584-17.217,13.923-53.111,10.197-70.535c-1.222-5.709-11.731-20.194-11.731-20.194"/>
	<path clip-path="url(#SVGID_4_)" fill="&fill_color;" d="M1638.276,296.725c0,29.201-69.872,96.907-148.863,96.907
		c-78.343,0-147.009-64.17-147.009-93.37c0-15.266,42.492-28.769,74.666-46.731c29.369-16.395,47.365-38,72.343-38
		c20.163,0,42.75,24.855,72.325,39.333C1597.178,272.214,1638.276,280.808,1638.276,296.725"/>
	<path clip-path="url(#SVGID_4_)" fill="&fill_color;" d="M1527.738,297.198c0,15.464-37.333,31-37.333,31s-37.335-15.536-37.335-31
		c0-15.464,16.716-25,37.335-25C1511.022,272.198,1527.738,281.734,1527.738,297.198"/>
	<path clip-path="url(#SVGID_4_)" fill="&fill_color;" d="M1591.071,229.891c0,9.205-7.462,16.667-16.667,16.667
		c-9.204,0-16.666-7.462-16.666-16.667c0-9.205,7.462-16.667,16.666-16.667C1583.609,213.224,1591.071,220.686,1591.071,229.891"/>
	<path clip-path="url(#SVGID_4_)" fill="&fill_color;" d="M1421.404,229.891c0,9.205-7.462,16.667-16.666,16.667
		c-9.205,0-16.666-7.462-16.666-16.667c0-9.205,7.461-16.667,16.666-16.667C1413.942,213.224,1421.404,220.686,1421.404,229.891"/>
	<path clip-path="url(#SVGID_4_)" fill="&fill_color;" d="M1601.691,200.7c0,0-23.177-5.275-38.322-4.504
		c-13.212,0.673-14.888-20.481-9.069-28.768c5.817-8.287,19.311-3.843,30.138,3.758S1601.691,200.7,1601.691,200.7"/>
	<path clip-path="url(#SVGID_4_)" fill="&fill_color;" d="M1377.451,200.7c0,0,23.177-5.275,38.322-4.504
		c13.211,0.673,14.887-20.481,9.069-28.768s-19.312-3.843-30.138,3.758C1383.878,178.787,1377.451,200.7,1377.451,200.7"/>
	<path clip-path="url(#SVGID_4_)" fill="&fill_color;" d="M1334.33,86.433c-13.418-10.016-57.795-69.403-55.525-49.379
		c1.638,14.435,4.604,28.641,6.027,37.162c5.26,31.466,43.713,137.817,43.713,137.817s8.577-35.723,12.52-46.933
		c11.016-31.334,33.556-53.036,33.556-53.036S1353.439,100.697,1334.33,86.433"/>
	<path clip-path="url(#SVGID_4_)" fill="&fill_color;" d="M1644.648,89.788c13.418-10.016,45.854-50.257,45.748-35.268
		c-0.104,14.527-4.498,32.688-5.923,41.209c-5.26,31.466-34.689,120.659-34.689,120.659s-7.928-36.723-11.87-47.933
		c-11.016-31.334-33.556-53.036-33.556-53.036S1625.539,104.052,1644.648,89.788"/>
	<path clip-path="url(#SVGID_4_)" fill="&fill_color;" d="M1397.071,349.531c0,0,16.603,8.254,41.996,8.454
		c20.384,0.158,49.447-7.524,53.337-7.787c0,0,28.527,9.796,45.993,9.658c20.892-0.166,40.007-12.325,40.007-12.325
		s-55.666,31.683-85,31.667C1466.057,379.183,1397.071,349.531,1397.071,349.531"/>
	<path clip-path="url(#SVGID_4_)" fill="&fill_color;" d="M1478.511,377.288c0,0,27.894-13.924,45.602-11.812
		c15.54,1.854,29.417,18.547,30.667,30.667c1.104,10.703,0.521,32.767-11,37.333c-10.187,4.039-31.006-6.125-34-16.667
		c-2.21-7.776,4.299-17.022-3.667-28.333C1501.112,381.376,1478.511,377.288,1478.511,377.288"/>
	<polyline clip-path="url(#SVGID_4_)" fill="&fill_color;" points="1627.276,695.118 1604.358,876.608 1638.276,890.108 
		1647.377,921.606 1559.659,921.606 1555.166,863.109 1555.159,698.118 	"/>
	<polyline clip-path="url(#SVGID_4_)" fill="&fill_color;" points="1364.066,695.097 1386.984,876.587 1353.066,890.087 
		1343.966,921.585 1434.684,921.585 1436.177,863.088 1439.184,698.097 	"/>
</g>
</svg>
